<?xml version="1.0" encoding="UTF-8"?>
<svg id="Layer_1" xmlns="http://www.w3.org/2000/svg" version="1.1" viewBox="0 0 48 48">
  <!-- Generator: Adobe Illustrator 29.3.1, SVG Export Plug-In . SVG Version: 2.1.0 Build 151)  -->
  <defs>
    <style>
      .st0 {
        fill: #fff;
      }

      .st1 {
        fill: #247796;
      }
    </style>
  </defs>
  <path class="st0" d="M48,22c-.3-5-2.5-9.8-6.3-13.1-3.7-3.3-8.7-5.1-13.7-4.8-8.2.4-15.3,6.1-17.3,14.1C4.6,18.7,0,23.9,0,30c0,6.6,5.4,12,12,12h18.1c5-.3,9.8-2.5,13.1-6.3,3.3-3.7,5.1-8.7,4.8-13.7Z"/>
  <path class="st1" d="M31.7,30.7l-7,7c-.4.4-1,.4-1.4,0l-7-7c-.4-.4-.4-1,0-1.4.4-.4,1-.4,1.4,0l5.3,5.3v-13.6c0-.6.4-1,1-1s1,.4,1,1v13.6l5.3-5.3c.4-.4,1-.4,1.4,0,.4.4.4,1,0,1.4h0Z"/>
</svg>