<?xml version="1.0" encoding="UTF-8"?>
<svg id="Layer_1" xmlns="http://www.w3.org/2000/svg" version="1.1" viewBox="0 0 48 48">
  <!-- Generator: Adobe Illustrator 29.3.1, SVG Export Plug-In . SVG Version: 2.1.0 Build 151)  -->
  <defs>
    <style>
      .st0 {
        fill: #fa9856;
      }

      .st1 {
        fill: #ee7c2f;
      }

      .st2 {
        fill: #7d5731;
      }

      .st3 {
        fill: #a2703f;
      }

      .st4 {
        fill: #247796;
        fill-rule: evenodd;
      }
    </style>
  </defs>
  <rect class="st2" x="18" y="26" width="12" height="9"/>
  <path class="st4" d="M42.7,36.2l-12.7-5.2c-3.5,2.7-8.4,2.7-12,0l-12.7,5.2c-2.6,1.1-4.3,3.6-4.3,6.5v3.3c0,.6.4,1,1,1h44c.6,0,1-.4,1-1v-3.3c0-2.8-1.7-5.4-4.3-6.5Z"/>
  <path class="st3" d="M24,30c5.6,0,11.5-5.3,12-14H12c.4,8.7,6.4,14,12,14Z"/>
  <path class="st0" d="M26,1.2v-.2c0-.6-.4-1-1-1h-2c-.6,0-1,.4-1,1v.2c-6.3,1-11,6.4-11,12.8h26c0-6.4-4.7-11.8-11-12.8Z"/>
  <rect class="st1" x="9" y="13" width="30" height="3" rx="1" ry="1"/>
  <path class="st1" d="M27,4c.6,0,1-.4,1-1v-1.4c-.7-.2-1.3-.4-2-.5v1.8c0,.6.4,1,1,1Z"/>
  <path class="st1" d="M21,4c.6,0,1-.4,1-1v-1.8c-.7.1-1.3.3-2,.5v1.4c0,.6.4,1,1,1Z"/>
  <path class="st0" d="M23,42h-4c-3.3,0-6-2.7-6-6v-2.9l-4,1.6v12.3h14v-5Z"/>
  <path class="st0" d="M35,33.1v2.9c0,3.3-2.7,6-6,6h-4v5h14v-12.3l-4-1.6Z"/>
</svg>