<?xml version="1.0" encoding="UTF-8"?>
<svg id="Layer_1" xmlns="http://www.w3.org/2000/svg" version="1.1" viewBox="0 0 48 48">
  <!-- Generator: Adobe Illustrator 29.3.1, SVG Export Plug-In . SVG Version: 2.1.0 Build 151)  -->
  <defs>
    <style>
      .st0 {
        fill: #c6c6c6;
      }

      .st1 {
        fill: #247796;
      }

      .st2 {
        fill: #2893b2;
      }
    </style>
  </defs>
  <path class="st2" d="M39,13h-14V5h14c.3,0,.5.1.7.3l3,3c.4.4.4,1,0,1.4l-3,3c-.2.2-.4.3-.7.3Z"/>
  <path class="st2" d="M39,25h-14v-8h14c.3,0,.5.1.7.3l3,3c.4.4.4,1,0,1.4l-3,3c-.2.2-.4.3-.7.3Z"/>
  <path class="st2" d="M23,11h-14c-.3,0-.5.1-.7.3l-3,3c-.4.4-.4,1,0,1.4l3,3c.2.2.4.3.7.3h14v-8Z"/>
  <path class="st0" d="M30,45h-5V2c0-.6-.4-1-1-1s-1,.4-1,1v43h-5c-.6,0-1,.4-1,1s.4,1,1,1h12c.6,0,1-.4,1-1s-.4-1-1-1Z"/>
  <rect class="st1" x="25" y="5" width="2" height="8"/>
  <rect class="st1" x="25" y="17" width="2" height="8"/>
</svg>