<?xml version="1.0" encoding="UTF-8"?>
<svg id="Layer_2" xmlns="http://www.w3.org/2000/svg" version="1.1" viewBox="0 0 299.8 327.4">
  <!-- Generator: Adobe Illustrator 29.3.1, SVG Export Plug-In . SVG Version: 2.1.0 Build 151)  -->
  <defs>
    <style>
      .st0 {
        fill: #fff;
      }

      .st0, .st1, .st2, .st3, .st4, .st5, .st6, .st7, .st8, .st9 {
        fill-rule: evenodd;
      }

      .st1 {
        fill: #5e4a11;
      }

      .st2 {
        fill: #eb8059;
      }

      .st3 {
        fill: #24617a;
      }

      .st4 {
        fill: #a9dfeb;
      }

      .st5 {
        fill: #473006;
      }

      .st6 {
        fill: #b7b7b7;
      }

      .st7 {
        fill: #febe9a;
      }

      .st8 {
        fill: #333;
      }

      .st9 {
        fill: #cecece;
      }
    </style>
  </defs>
  <g id="Layer_1-2">
    <path class="st2" d="M121,99.8c-3,7.9-24.3,46.1-36.1,39.8-6.9,0-11-6.5-5-15.4,8.6-12.7,22.8-28.6,28.1-37.1l13.1,12.7h0Z"/>
    <path class="st3" d="M107,130.8c.7-.6,1.1-2.5,1.8-3.7,3.4-4,14-13.8,17.2-20.9,4.9-10.8-3.9-20.9-10.8-26.9-4.9-3.9-20.3,17.6-26.5,27.7-3.2,2.4-4.9,3.8-5.6,4.5,1.2,7.8,14.9,19.2,23.8,19.2h0Z"/>
    <path class="st8" d="M179.3,292.9c1.6,12-8.4,20.1-7.4,32.1,2.2,3.9,40.1,2.7,39.9-1.3-1.5-24.8-13.8-37.8-16.9-37.8l-15.6,7.1h0Z"/>
    <path class="st8" d="M103.7,299c-13.5,10.2-31.3,10-28.8,24.6,3.8,4,49.7,2.7,49.9,0,.6-13-1.6-22.3-4.4-23.6l-16.7-1h0Z"/>
    <path class="st1" d="M205.2,289.9c-10,7.4-30.8,12.7-32.9,11.4,0,0-21.6-46.6-27.4-63s-7.1-32.2-8.9-40.8c0,0-.7,0-1.8,0-2.4,10.4-4.1,31.7-5.8,38.6-1.8,14.4-4.1,57.7-5.6,64.7-12.1,4.9-31.2,1.6-34.6-2.4,0,0-1-45.4,1.3-66.9,2.3-21.5,6.6-73.2,11.9-98.9,9.5,5.1,24.8,8.2,31.1,11.2,0-.5.1-1,.1-1.4,29.3,5.3,38.3,1.5,38.3,1.5,2.1,8.4,5.8,10.6,6.2,32.6.2,51.2,19.8,81.4,27.9,113.5h0Z"/>
    <path class="st3" d="M181.9,163.3c-.5,2.7-5.1,5.3-5.8,5.6-32.8,4.8-68.5,0-79.4-4.5-1.4-.6-3-4.1-3.5-4.5-.7-.8,11.1-70.3,19.2-80.5.3-.4,16.1-4.6,19.7-4.6,6.4-2.6,11.3-3.1,16.6-1.1,5.1,1.9,20.7,5.3,23.5,8.9,4,6.4,6.8,61.1,7.9,76,.2,2.3,1.8,4.7,1.8,4.8h0Z"/>
    <path class="st7" d="M131,74.8c0-.3.3-8,.3-9,.6-.4,1.1-.8,1.7-1.2l19.7,2.3-.4,8.7c-9.1,12.8-24.5,13.6-21.2-.8h0Z"/>
    <path class="st2" d="M131.1,72.2c6.5,2.9,13.4,2.1,19.2-.8-1,5.5-14.4,10.1-19.3,3,0-.6.2-1.4.2-2.2Z"/>
    <path class="st7" d="M155.6,18.4l-30.2-2.5c-2.4-.2-6.8-.5-7.1,1.9l-.7,30.3c-1.4,6.5,1.1,24.8,20.4,25.8,19.3,1,29.9-19.9,25.1-41.9.3-2.3-5.1-13.4-7.5-13.6h0Z"/>
    <path class="st7" d="M164.1,37.6c-4.7,2.2-7.5,8.5-5.9,13.3,1.6,4.8,6.7,6.9,11.4,4.7,4.8-2.2,7.5-8.5,5.9-13.3-1.6-4.8-6.7-6.9-11.4-4.7h0Z"/>
    <path class="st5" d="M161.1,15c7.3-3.6,16.9,9.1,9.9,22.7.2-.4-10.3-4.1-12.3,9-6.2-3.7-6.1-9.9-5.8-19.4-6.1-3.4-19.1-7.8-20.7-7.4-4.4-.6-9.4,9.7-14.3,8.5-.2,8.6-.3,12.9-.3,12.9-4.7-1.4-5.7-9-2.2-12.9-9.6-24.4,32.4-42.4,45.6-13.4h0Z"/>
    <path class="st2" d="M168.1,43c2.2.5,3.6,2.7,3.2,4.9-.5,2.2-2.6,3.6-4.9,3.2s-2.4-2.5-1.8-4.6,1.2-3.9,3.4-3.5Z"/>
    <path class="st0" d="M131,74.9l4.6,10.7c11.2-7.1,16.6-10.6,16.6-10.6,0-1.3,0-2.6,0-2.6,1.1.4,3.2,1.2,3.2,1.2.2,1.8.2,2.6.2,2.6l-8,16.6-7.6-7-5.3,3.3-2.5-4.9-6.4,3.3v-11.6c0,0,1.6-2.4,1.6-2.4l3.6-.6-.2,2.1h0Z"/>
    <path class="st2" d="M179,98.4c4.2,7.3,20.4,47.2,8.1,52.3-6.9,1.6-11.9,1.9-15-8.4-4.4-14.6-8-32.4-11.2-41.9,0,0,18.1-2.1,18.1-2.1Z"/>
    <path class="st3" d="M165.7,137.7c-.5-.8-.4-2.7-.7-4-2.1-4.8-6.1-13.4-7.2-21.1-1.7-11.8,7-29.5,13.4-30.4,6.4-.9,17.6,21.2,21.4,38.2,2.4,3.2,3.6,5,4.1,5.9-3.4,7.1-22.4,13.9-30.9,11.5h0Z"/>
    <path class="st7" d="M123.9,109.8c-8,2.8-52.5,12.5-46.3,27,6.2,14.5,31.5-3.6,49.2-19.6l-2.9-7.4h0Z"/>
    <path class="st9" d="M148.6,89.2l-65.7-3.2c-1.6,0-2.7,1.1-2.5,2.7l4.8,45.4c.2,1.6,1.6,2.9,3.1,3l65.7,3.2c1.6,0,2.7-1.1,2.5-2.7l-4.8-45.3c-.2-1.6-1.6-2.9-3.1-3h0Z"/>
    <path class="st7" d="M137.3,152.4c5.4,1.5,54.2,10.6,54-5.9-.2-16.4-31.8-7.7-50.9-5.6l-3.1,11.5Z"/>
    <path class="st6" d="M167.9,136.9l-80-4.4c-1,0-1.9.7-1.9,1.8v1.5c0,1,.8,1.9,1.8,2l80,4.4c1,0,1.9-.7,1.9-1.8v-1.5c0-1-.8-1.9-1.8-2h0Z"/>
    <path class="st7" d="M141.3,140.6l2.4,2.1-3.5,10.1c-4.7-.7-11.7-1.3-15.6-2.6-4.1-1.3-7-3.2-8.5-4.1-2.5-2-1.9-4.1-2-5.3-1.6-1.1-2.4-4.1-1.4-5.3-2-1.7-2.9-5-.9-5.7,2-.7,5.9,4.4,8.4,5.4,3,1.1,6.8,2.5,8,1.9-1.1-2.2-9.7-7.5-5.8-10.1,1.2-.7,5.8,2.6,9.8,4.8,3.1,1.6,5.7,4.5,9,8.8h0Z"/>
    <path class="st0" d="M113.5,107c-3,0-5.3,2.2-5.2,5.2.1,3,2.6,5.5,5.6,5.5,3,0,5.3-2.2,5.2-5.2-.1-3-2.6-5.5-5.6-5.5Z"/>
    <path class="st4" d="M258.7,234.2c13.2,0,23.9,10.6,23.9,23.8s-10.7,23.8-23.9,23.8-23.9-10.6-23.9-23.8,10.7-23.8,23.9-23.8h0ZM258.7,229.8c-7.8,0-14.9,3.1-20,8.2s-8.3,12.1-8.3,19.9,3.2,14.8,8.3,19.9c5.1,5.1,12.2,8.2,20,8.2s14.9-3.1,20-8.2,8.3-12.1,8.3-19.9-3.2-14.8-8.3-19.9c-5.1-5.1-12.2-8.2-20-8.2h0ZM278,238.7c-5-4.9-11.8-8-19.4-8s-14.4,3.1-19.4,8c-4.9,4.9-8,11.8-8,19.3s3.1,14.3,8,19.3,11.8,8,19.4,8,14.4-3,19.4-8c5-4.9,8-11.8,8-19.3s-3.1-14.3-8-19.3h0ZM240.1,220.2v8.6c-.1,0-5.4,5-5.4,5l-8.9-2.1-8.3,17.2,6.7,5.5.7,7.2-7.2,5.6,8.3,17.2,8.5-1.8,6.1,4v9.1c0,0,18.6,4.3,18.6,4.3l3.9-7.7,6.9-2.2,7.1,5.7,15-11.9-3.6-7.8,2.5-6.8,8.9-2v-19.1s-8.4-2.1-8.4-2.1l-3.7-6.2,4-8.2-15-11.9-6.9,5.3-7.2-.9-3.9-8.2-18.7,4.2h0Z"/>
    <path class="st4" d="M223.7,185.4c-5.7-1.3-11.3,2.2-12.6,7.9s2.2,11.3,7.9,12.6,11.3-2.2,12.6-7.9-2.2-11.3-7.9-12.6h0ZM232.4,173.2v5.1c0,0,3.2,3,3.2,3l5.3-1.2,4.9,10.2-4,3.3-.4,4.3,4.3,3.4-4.9,10.3-5-1.1-3.6,2.4v5.4s-11.1,2.6-11.1,2.6l-2.3-4.6-4.1-1.3-4.2,3.4-8.9-7.1,2.2-4.7-1.5-4-5.3-1.2v-11.4s5-1.2,5-1.2l2.2-3.7-2.4-4.9,8.9-7.1,4.1,3.1,4.3-.6,2.3-4.9,11.1,2.5h0Z"/>
    <path class="st4" d="M26.7,264.7c-5.7-1.3-11.3,2.2-12.6,7.9-1.3,5.7,2.2,11.3,7.9,12.6s11.3-2.2,12.6-7.9c1.3-5.7-2.2-11.3-7.9-12.6h0ZM35.5,252.5v5.2c0,0,3.2,3,3.2,3l5.3-1.2,5,10.2-4,3.3-.4,4.3,4.3,3.4-4.9,10.3-5-1.1-3.6,2.4v5.4s-11,2.5-11,2.5l-2.3-4.6-4.1-1.3-4.2,3.4-8.9-7.1,2.2-4.7-1.5-4-5.3-1.2v-11.4s5-1.2,5-1.2l2.2-3.7-2.4-4.9,8.9-7.1,4.1,3.1,4.3-.6,2.3-4.9,11.1,2.5h0Z"/>
  </g>
</svg>