<?xml version="1.0" encoding="UTF-8"?>
<svg id="Layer_1" xmlns="http://www.w3.org/2000/svg" version="1.1" viewBox="0 0 48 48">
  <!-- Generator: Adobe Illustrator 29.3.1, SVG Export Plug-In . SVG Version: 2.1.0 Build 151)  -->
  <defs>
    <style>
      .st0 {
        fill: #247796;
      }

      .st1 {
        fill: #e86c60;
      }
    </style>
  </defs>
  <path class="st1" d="M34,3c-3.9,0-7.5,1.7-10,4.7C19.4,2.2,11.2,1.4,5.7,6c-3,2.5-4.7,6.1-4.7,10,0,12.3,21.5,30,22.4,30.8.4.3.9.3,1.3,0,.9-.7,22.4-18.4,22.4-30.8,0-7.2-5.8-13-13-13Z"/>
  <path class="st0" d="M26,31c-.3,0-.6-.2-.8-.4l-7.2-10.8-3.2,4.8c-.2.3-.5.4-.8.4H1c-.6,0-1-.4-1-1s.4-1,1-1h12.5l3.7-5.6c.3-.5,1-.6,1.5-.2,0,0,.2.1.2.2l7.2,10.8,3.2-4.8c.2-.3.5-.4.8-.4h17c.6,0,1,.4,1,1s-.4,1-1,1h-16.5l-3.7,5.6c-.2.3-.5.4-.8.4Z"/>
</svg>