<?xml version="1.0" encoding="UTF-8"?>
<svg id="Layer_1" xmlns="http://www.w3.org/2000/svg" version="1.1" viewBox="0 0 48 48">
  <!-- Generator: Adobe Illustrator 29.3.1, SVG Export Plug-In . SVG Version: 2.1.0 Build 151)  -->
  <defs>
    <style>
      .st0 {
        fill: #444;
      }

      .st1 {
        fill: #fff;
      }

      .st2 {
        fill: #247796;
      }
    </style>
  </defs>
  <path class="st0" d="M35,1H13c-2.8,0-5,2.2-5,5v36c0,2.8,2.2,5,5,5h22c2.8,0,5-2.2,5-5V6c0-2.8-2.2-5-5-5ZM38,39c0,.6-.4,1-1,1H11c-.6,0-1-.4-1-1V7c0-.6.4-1,1-1h26c.6,0,1,.4,1,1v32Z"/>
  <path class="st2" d="M38,7v32c0,.6-.4,1-1,1H11c-.6,0-1-.4-1-1V7c0-.6.4-1,1-1h26c.6,0,1,.4,1,1Z"/>
  <path class="st1" d="M30.8,26.8c0,1.3-.5,2.6-1.5,3.4-1.3,1-2.8,1.6-4.4,1.7v3.1h-1.9v-3c-2,0-4-.3-5.8-1.1v-3c.9.4,1.9.8,2.9,1,1,.3,2,.4,3,.4v-5.4l-1.2-.4c-1.3-.4-2.5-1.2-3.4-2.2-.7-.9-1.1-2-1.1-3.1,0-1.3.5-2.5,1.5-3.3,1.2-.9,2.7-1.5,4.2-1.6v-2.4h1.9v2.4c1.9,0,3.8.5,5.5,1.2l-1,2.6c-1.4-.6-2.9-.9-4.5-1.1v5.2l1.1.4c1.4.4,2.7,1.2,3.8,2.2.7.8,1.1,1.8,1,2.8ZM20.7,18.2c0,.5.2,1,.5,1.4.5.5,1.2.8,1.8,1.1v-4.5c-.6,0-1.2.3-1.8.7-.4.3-.6.8-.6,1.3ZM27.4,27c0-.5-.2-1-.6-1.4-.6-.5-1.2-.8-1.9-1v4.6c1.7-.3,2.5-1,2.5-2.2Z"/>
</svg>