<?xml version="1.0" encoding="UTF-8"?>
<svg id="Layer_2" xmlns="http://www.w3.org/2000/svg" version="1.1" viewBox="0 0 408 321.8">
  <!-- Generator: Adobe Illustrator 29.3.1, SVG Export Plug-In . SVG Version: 2.1.0 Build 151)  -->
  <defs>
    <style>
      .st0, .st1 {
        fill: #7fcde1;
      }

      .st2, .st3, .st4, .st5, .st6, .st7, .st8, .st9, .st10, .st11, .st1 {
        fill-rule: evenodd;
      }

      .st2, .st12 {
        fill: #fff;
      }

      .st3 {
        fill: #5e4a11;
      }

      .st4, .st13 {
        fill: #2893b2;
      }

      .st5 {
        fill: #eb8059;
      }

      .st6 {
        fill: #24617a;
      }

      .st7 {
        fill: #a9dfeb;
      }

      .st8 {
        fill: #473006;
      }

      .st9 {
        fill: #234456;
      }

      .st10 {
        fill: #febe9a;
      }

      .st11 {
        fill: #333;
      }
    </style>
  </defs>
  <g id="Layer_1-2">
    <rect class="st13" y="33.6" width="220.9" height="288.2" rx="5.5" ry="5.5"/>
    <polygon class="st9" points="13.8 47.2 207.1 47.2 212.6 311 19.3 311 13.8 47.2"/>
    <rect class="st12" x="13.8" y="47.2" width="193.3" height="257.1"/>
    <path class="st1" d="M74.2,21.6c21.2-.2,14.3-.4,14.7-5.9,1.4-22,42.6-19.8,43.1,0,.1,6-6.2,5.8,14.7,5.9.8,0,1.4.6,1.4,1.4v33.4c0,.8-.6,1.4-1.4,1.4h-72.4c-.8,0-1.4-.6-1.4-1.4V23c0-.8.6-1.4,1.4-1.4h0Z"/>
    <rect class="st0" x="33.4" y="89.5" width="28.6" height="28.6" rx="1.2" ry="1.2"/>
    <rect class="st0" x="33.4" y="139.8" width="28.6" height="28.6" rx="1.2" ry="1.2"/>
    <rect class="st0" x="33.4" y="188.7" width="28.6" height="28.6" rx="1.2" ry="1.2"/>
    <rect class="st0" x="33.4" y="237.4" width="28.6" height="28.6" rx="1.2" ry="1.2"/>
    <rect class="st0" x="72.1" y="103.4" width="112.3" height="12.8"/>
    <rect class="st0" x="72.1" y="154.4" width="112.3" height="12.8"/>
    <rect class="st0" x="72.1" y="203.2" width="112.3" height="12.8"/>
    <rect class="st0" x="72.1" y="253.5" width="112.3" height="12.8"/>
    <path class="st11" d="M321.2,297.5c-12,9.1-27.8,8.9-25.5,21.8,3.4,3.6,44.1,2.4,44.3,0,.5-11.5-1.4-19.8-3.9-20.9l-14.8-.9h0Z"/>
    <path class="st11" d="M387.2,297.7c-12,9.1-27.8,8.9-25.5,21.8,3.4,3.6,44.1,2.4,44.3,0,.5-11.5-1.4-19.8-3.9-20.9l-14.8-.9h0Z"/>
    <path class="st5" d="M332.6,122.9c-5.5,4.8-36.5,26-42.9,16.3-2.6-5.6-4-9.4,4.3-13.7,10.3-7.3,22.3-11.8,29.9-16.2l8.8,13.6Z"/>
    <path class="st10" d="M257.3,119.1c2.4,3.6,30.6,31,38.8,21.9,8.2-9.1-17.3-23.4-34.4-29.8,0,0-4.4,7.9-4.4,7.9Z"/>
    <path class="st3" d="M394.9,240.1c.1.1,9.5,39.5,10.5,58.1-8.9,6.5-26.4,5.7-30.3,3.3,0,0-8.6-42-12.5-58.6-4-16.6-6.1-25.1-7.7-32.8-.2-.8-2.4-.5-3.3-.9-2.1,9.2-2.6,21.1-4.1,27.2-.2,11.7-4.9,57.3-6.2,63.5-10.7,4.3-26.5.2-29.5-3.4,0,0,.6-41.8,2.9-61.1,2.4-19.3,5.3-63.2,10-86.1,8.4,4.6,16.7,7.6,22.2,10.2,0-.5,0-.9.1-1.2,26,4.7,34,1.3,34,1.3,1.8,7.5,5.1,9.4,5.5,28.9.2,3,8.1,50.9,8.4,51.5h0Z"/>
    <path class="st6" d="M307.2,143.8c.8-.3,1.6-1.7,2.5-2.5,3.9-2.3,15.5-7.3,20.1-12.2,7.1-7.5,5.5-17.9,1.5-24.7-2.9-4.6-24.4,8.2-32.4,14.8-3.3,1.1-5.1,1.7-5.9,2.1-1.2,6.7,6.8,20,14.1,22.6h0Z"/>
    <path class="st6" d="M386.4,185c-6.8,1.9-20.5,3.9-34.1,3.7-13.8-.2-27.5-2.4-32.6-4.5-1.5-.5-2.5-3.3-2.9-3.8-.6-.6,4.8-67.8,11.6-76.8.3-.4,13.9-4.4,17-4.5,5.5-2.4,9.8-3,14.4-1.4,4.5,1.5,18.1,5,20.6,8.1,2.9,4.3,6.5,44.2,8.4,67.8.1,1.9,2.3,4.2,2.4,5.9-.8,2.3-3.3,3.9-4.8,5.6h0Z"/>
    <path class="st9" d="M276.3,321.8h0c.9,0,1.7-.9,1.6-1.8l-.9-15.3c0-.9-.9-1.7-1.8-1.6h0c-.9,0-1.7.9-1.6,1.8l.9,15.3c0,.9.9,1.7,1.8,1.6Z"/>
    <path class="st4" d="M261.8,292.5c1.5,9,10.3,21.5,14,21.6,3.7,0,10.5-14.9,10.4-23.1-2-45.7-7.6-93-11.7-138.8l-25.4,1c4.7,52.7,5,79.3,12.7,139.3h0Z"/>
    <path class="st4" d="M250.7,111.1c4.5-.3,9-.6,13.5-.9-1.2-12.9-2.3-25.8-3.5-38.8-1.6-4.4-11.3-3.8-13.6.3,1.2,12.9,2.4,26.5,3.5,39.4Z"/>
    <path class="st9" d="M278.7,146.1c-1.6,2-.3,8.5,1.8,10.9s5.1,1.1,5.1-3.2c-1.2-12.9-3.8-41.3-4.4-47-.6-5.7-12.9-3.2-14.2-1.7-1.3,1.5.2,4.3,1.6,4.8,2.2.8,6.7,0,7.1,2.7,1.5,11.8,1.9,21.4,2.9,33.6h0Z"/>
    <path class="st7" d="M250.8,166.4c7.3-3.5,16.2-4.2,24.1-1.9,1.4.4,2.6-1.4,2.5-2.9l-4.9-67.4c-1-13.7-32.4-11.2-31,4l6.4,65.8c.1,1.5,1.6,3.1,2.9,2.5h0Z"/>
    <path class="st10" d="M344.4,99.1c0-.2,0-7,0-7.8.5-.4,1-.8,1.4-1.1l17.2,1.5v7.6c-7.8,11.4-21.1,12.4-18.6-.1Z"/>
    <path class="st5" d="M344.4,96.8c5.7,2.4,11.7,1.5,16.6-1.2-.7,4.8-12.2,9.2-16.7,3.1,0-.5.1-1.2,0-1.9Z"/>
    <path class="st10" d="M362.9,48.9l-26.3.5c-2.1,0-4.6.4-4.6,2.5-.5,4.7-.9,12.8-.2,20.8-.1,16.1,5.8,26.7,20.9,25.9,16.8-.9,24.1-20.1,18-38.7,0-2.1-5.6-11.1-7.7-11.1Z"/>
    <path class="st10" d="M372,64.3c-3.9,2.3-5.7,8-4,12,1.8,4,6.4,5.3,10.3,3.1,3.9-2.3,5.7-8,4-12-1.8-4-6.4-5.3-10.3-3.1Z"/>
    <path class="st8" d="M372.2,47c4.1-1.3,10.8,3,6,16.7.1-.4-9.3-3-9.9,9.8-3.8-.5-3.1-11.8-5.1-13.4-10.6-5-17.8-6.9-22.7-6.6-8.8.6-9.8,8.6-8.9,19.2-4.2-.9-5.1-8.4-2.4-12.5-2.1-8.3-3.3-11.3,1.1-18.2s23.5-16,36.4,1.5c.7-6.9,5.3-3.8,5.4,3.5Z"/>
    <path class="st5" d="M375.9,69c2,.2,3.4,2,3.2,3.9s-2,3.4-3.9,3.2-2.3-1.9-1.9-3.8c.4-1.9.7-3.5,2.7-3.3h0Z"/>
    <path class="st2" d="M344.4,99.2l4.3,9.1c9.6-6.5,14.2-9.7,14.2-9.7v-2.2c1,.3,2.9,1,2.9,1,.2,1.5.3,2.3.3,2.3l-6.5,14.6-6.8-5.9-4.5,3-2.3-4.2-5.5,3-.4-10.1,1.4-2.2,3.1-.6v1.8c-.1,0-.1,0-.1,0Z"/>
    <path class="st5" d="M383.3,116.1c4.7,5.6,25.5,36.9,15.7,43.2-5.7,2.5-9.4,3.8-13.6-4.5-7.1-10.4-11.5-22.5-15.8-30.1l13.7-8.6h0Z"/>
    <path class="st6" d="M377.6,150.2c-.5-.7-.6-2.3-.9-3.4-2.2-3.9-6.3-11.2-7.9-17.7-2.4-10.1,3.5-23.9,9-25.2s15.8,19.5,19.3,29.2c2.3,2.6,3.5,4.1,4,4.8-2.4,6.4-15.9,13.9-23.5,12.4h0Z"/>
    <path class="st10" d="M397.1,192.8c-2.4-3.8-16.3-41.5-4.4-45.4,11.9-3.9,14.8,25.9,13.6,44.6l-9.2.8h0Z"/>
    <path class="st10" d="M396.8,190.7l1.9-2.3,8,.5c.5,3.9,1.5,9.5,1.4,12.7-.1,3.5-1,6.2-1.3,7.6-1,2.4-2.8,2.4-3.8,2.7-.5,1.5-2.7,2.8-3.9,2.2-.9,1.9-3.3,3.4-4.2,2-1-1.4,2.1-5.6,2.3-7.8.2-2.6.5-5.8-.3-6.7-1.5,1.4-3.7,9.3-6.6,6.8-.8-.8.8-5.1,1.6-8.7.6-2.8,2.3-5.4,4.9-8.9h0Z"/>
  </g>
</svg>