<?xml version="1.0" encoding="UTF-8"?>
<svg id="Layer_1" xmlns="http://www.w3.org/2000/svg" version="1.1" viewBox="0 0 48 48">
  <!-- Generator: Adobe Illustrator 29.3.1, SVG Export Plug-In . SVG Version: 2.1.0 Build 151)  -->
  <defs>
    <style>
      .st0 {
        fill: #444;
      }

      .st0, .st1, .st2 {
        fill-rule: evenodd;
      }

      .st1 {
        fill: #ead8c5;
      }

      .st3 {
        fill: #fff;
      }

      .st4 {
        fill: #dac2a7;
      }

      .st5 {
        fill: #2893b2;
      }

      .st2 {
        fill: #c6a279;
      }
    </style>
  </defs>
  <rect class="st4" x="17" y="24" width="12" height="15"/>
  <path class="st1" d="M34,12v8c0,6.1-4.9,11-11,11s-11-4.9-11-11v-8h22Z"/>
  <path class="st0" d="M45,44c0-1.7-1.2-3.5-2.8-4.2l-13.2-5.8c-1.7,1.2-3.8,2-6,2s-4.3-.8-6-2l-13.3,5.8c-1.5.7-2.8,2.6-2.8,4.2v3c0,.6.4,1,1,1h42c.6,0,1-.4,1-1v-3Z"/>
  <path class="st2" d="M12,12c0-3.3,2.5-6.9,5.7-8l7.4-2.6c.5-.2,1.1,0,1.4.6l1.6,3.1c3.3,0,6,2.7,6,6v6c0-2.8-2.2-5-5-5h-12c-2.8,0-5,2.2-5,5v-5Z"/>
  <circle class="st5" cx="39" cy="37" r="8"/>
  <path class="st3" d="M42,36h-2v-2c0-.6-.4-1-1-1s-1,.4-1,1v2h-2c-.6,0-1,.4-1,1s.4,1,1,1h2v2c0,.6.4,1,1,1s1-.4,1-1v-2h2c.6,0,1-.4,1-1s-.4-1-1-1Z"/>
</svg>